<svg preserveAspectRatio="none" overflow="visible" style="display: block;" width="62.011" height="69.0057" viewBox="0 0 62.011 69.0057" fill="none" xmlns="http://www.w3.org/2000/svg">
<g id="Logo" clip-path="url(#clip0_0_39)">
<g id="Vector">
</g>
<path id="Vector_2" d="M17.5178 25.5366C18.2654 26.6528 19.1204 27.6963 20.0713 28.653C21.976 30.5366 24.2312 31.9761 26.4458 33.4633C30.4316 36.1389 34.5706 38.5974 38.5077 41.3377C40.8708 42.9806 43.0181 44.8347 44.5723 47.2819C45.8304 49.2633 46.4085 51.4322 46.5361 53.7305C46.6673 56.0709 46.5199 58.3807 45.6076 60.5916C43.9478 64.6123 40.9463 67.1515 36.6947 68.2717C32.3432 69.417 27.9965 69.0966 23.6683 68.1059C22.518 67.8423 21.391 67.5026 20.3371 66.9698C18.401 65.9916 17.4354 64.3942 17.404 62.2935C17.3634 59.5668 17.404 56.8401 17.3947 54.1134C17.3947 53.7487 17.5201 53.6692 17.859 53.6726C18.9617 53.684 20.0643 53.6817 21.1658 53.6533C21.557 53.6431 21.6475 53.7783 21.6452 54.1418C21.6266 56.5084 21.637 58.8738 21.6243 61.2403C21.6147 61.6942 21.6714 62.1472 21.7926 62.5855C21.969 63.191 22.2963 63.7011 22.9092 63.9602C26.7394 65.5769 30.6498 66.1711 34.7041 64.8554C38.3521 63.6716 40.9718 60.1837 41.1819 56.4334C41.3711 53.0864 40.0653 50.3517 37.7985 47.9727C35.7092 45.7834 33.2486 44.044 30.7461 42.3591C27.4823 40.1607 24.1395 38.0771 20.8942 35.848C18.5937 34.2677 17.44 32.1408 17.2612 29.4539C17.1856 28.1428 17.2717 26.8275 17.5178 25.5366Z" fill="#FAFAFA"/>
<path id="Vector_3" d="M45.8467 43.1976C45.2467 42.2408 44.544 41.3496 43.7505 40.539C41.6079 38.3736 39.081 36.6967 36.5705 34.9925C32.6462 32.3294 28.5536 29.9084 24.6908 27.1533C22.6364 25.6877 20.7387 24.0505 19.1903 22.0566C17.6153 20.0275 16.9014 17.7167 16.8202 15.1865C16.7424 12.7314 17.1011 10.3546 18.1155 8.09827C19.8566 4.2275 22.9173 1.82006 27.0377 0.786195C32.5313 -0.590783 37.932 -0.143151 43.1504 2.03593C45.2397 2.9096 46.2053 4.57061 46.2204 6.76219C46.239 9.39344 46.2146 12.0247 46.2332 14.656C46.2332 15.0945 46.1171 15.2433 45.6529 15.224C44.6082 15.1888 43.5636 15.1933 42.519 15.224C42.0756 15.2365 41.97 15.0922 41.9723 14.6753C41.9886 12.328 41.9804 9.98082 41.9723 7.63132C41.963 5.94077 41.4906 5.25456 39.8912 4.68536C36.8235 3.59355 33.6815 3.09479 30.4374 3.7367C25.689 4.67854 22.5633 8.38343 22.3857 13.1324C22.2917 15.6716 23.1204 17.8348 24.8034 19.739C26.8845 22.0941 29.3649 23.9903 31.9277 25.7922C34.8817 27.8679 38.0178 29.6811 40.9637 31.7671C41.8737 32.4112 42.786 33.052 43.6112 33.7973C45.7991 35.7742 46.3609 38.3179 46.1879 41.0935C46.1438 41.757 46.1125 42.4205 45.8467 43.1976Z" fill="#FAFAFA"/>
<path id="Vector_4" d="M20.6586 50.9891C16.1911 50.9891 11.7213 50.997 7.25495 50.9891C4.30216 50.9823 2.07016 49.3428 1.21937 46.5821C1.06704 46.0526 0.995079 45.504 1.0058 44.954C1 37.9305 0.990714 30.9025 1.01161 23.8835C1.01973 21.0659 2.71086 18.7392 5.26321 17.9178C5.83031 17.7235 6.42556 17.6196 7.0263 17.6099C8.8242 17.6099 10.6244 17.6099 12.4223 17.5951C12.8321 17.5951 12.9505 17.7212 12.94 18.1143C12.9145 19.0989 12.9145 20.0836 12.94 21.0682C12.9493 21.4625 12.8239 21.5897 12.4189 21.584C10.91 21.5636 9.40107 21.5749 7.89217 21.584C6.07917 21.584 5.03107 22.594 5.02875 24.3505C5.02333 31.0157 5.02101 37.6809 5.02179 44.3462C5.02179 45.9243 6.13953 47.0127 7.76798 47.0127C14.9434 47.0127 22.1187 47.0252 29.2953 47.0024C31.8151 46.9933 33.555 48.1238 34.66 50.2847C35.0082 50.9664 34.9966 50.9936 34.2352 50.9936C29.7093 50.9936 25.1826 50.9936 20.6551 50.9936L20.6586 50.9891Z" fill="#F7D043"/>
<path id="Vector_5" d="M42.6084 17.6099C46.8426 17.6099 51.0775 17.6099 55.3133 17.6099C59.284 17.6155 61.9513 20.1661 61.9745 24.071C62.0116 30.2981 61.9896 36.5251 61.9884 42.7522C61.9884 44.0019 62.0824 45.2517 61.7563 46.4798C61.0482 49.1611 58.8232 50.9221 55.9888 50.9811C54.2687 51.0164 52.5462 50.9811 50.826 50.9902C50.5185 50.9902 50.3699 50.9323 50.3769 50.588C50.3978 49.5473 50.4012 48.5067 50.3769 47.466C50.3699 47.0774 50.5336 46.9956 50.8934 47.0002C52.3048 47.0172 53.7162 47.0115 55.1276 47.007C56.9429 47.007 57.984 46.0027 57.984 44.2428C57.984 37.5617 57.9809 30.8801 57.9747 24.1982C57.9747 22.6077 56.8872 21.5852 55.1891 21.5852C51.5933 21.5783 47.9951 21.5783 44.3947 21.5852C40.5075 21.5852 36.6181 21.5761 32.7332 21.6067C32.3579 21.6179 31.9842 21.5531 31.6357 21.4162C31.2871 21.2793 30.9712 21.0735 30.7078 20.8115C29.8953 20.0503 29.322 19.1448 28.8763 18.1461C28.6952 17.7405 28.7509 17.5974 29.25 17.5985C33.6978 17.6144 38.1455 17.6076 42.5979 17.6076L42.6084 17.6099Z" fill="#F7D043"/>
</g>
<defs>
<clipPath id="clip0_0_39">
<rect width="62.011" height="69.0057" fill="white"/>
</clipPath>
</defs>
</svg>
