<svg preserveAspectRatio="none" overflow="visible" style="display: block;" width="183.497" height="62.3439" viewBox="0 0 183.497 62.3439" fill="none" xmlns="http://www.w3.org/2000/svg">
<g id="logo">
<g id="icon">
<path d="M25.0349 0.717716C26.6924 -0.23924 28.7345 -0.239238 30.392 0.717718L52.339 13.3888L37.1632 22.2748C34.8141 19.9165 31.5633 18.4569 27.9717 18.4569C24.2363 18.4569 20.8697 20.0356 18.5026 22.5621L2.96121 13.462L25.0349 0.717716Z" fill="url(#paint0_linear_0_9)"/>
<path d="M15.5444 27.6944L4.87268e-05 18.5926V44.0353L15.4865 34.9674C15.1685 33.8429 14.9984 32.6564 14.9984 31.4302C14.9984 30.1315 15.1892 28.8774 15.5444 27.6944Z" fill="url(#paint1_linear_0_9)"/>
<path d="M18.3634 40.1473L3.20542 49.0229L25.0349 61.6262C26.6924 62.5831 28.7345 62.5831 30.392 61.6262L52.0948 49.0961L37.308 40.4379C34.9486 42.8828 31.6377 44.4034 27.9717 44.4034C24.1625 44.4034 20.7367 42.7618 18.3634 40.1473Z" fill="url(#paint2_linear_0_9)"/>
<path d="M40.3422 35.35L55.4259 44.1821C55.4266 44.1479 55.4269 44.1137 55.4269 44.0794V18.4452L40.2787 27.3151C40.7108 28.6081 40.9449 29.9918 40.9449 31.4302C40.9449 32.7964 40.7337 34.1133 40.3422 35.35Z" fill="url(#paint3_linear_0_9)"/>
</g>
<g id="Text">
<path fill-rule="evenodd" clip-rule="evenodd" d="M73.3815 46.0299C75.5556 47.3569 78.1673 48.0205 81.2167 48.0205C84.2661 48.0205 86.8778 47.3569 89.0519 46.0299C91.2402 44.6887 92.9131 42.8252 94.0707 40.4393C95.2425 38.0535 95.8284 35.2864 95.8284 32.1382C95.8284 28.99 95.2425 26.2229 94.0707 23.8371C92.9131 21.4512 91.2402 19.5948 89.0519 18.2677C86.8778 16.9265 84.2661 16.256 81.2167 16.256C78.1673 16.256 75.5556 16.9265 73.3815 18.2677C71.2074 19.5948 69.5344 21.4512 68.3627 23.8371C67.205 26.2229 66.6262 28.99 66.6262 32.1382C66.6262 35.2864 67.205 38.0535 68.3627 40.4393C69.5344 42.8252 71.2074 44.6887 73.3815 46.0299ZM86.3202 41.8581C84.9649 42.7758 83.2637 43.2275 81.2167 43.2134C79.1697 43.1852 77.4614 42.7123 76.092 41.7946C74.7367 40.877 73.7203 39.5993 73.0426 37.9617C72.365 36.3099 72.0262 34.3688 72.0262 32.1382C72.0262 29.9076 72.365 27.9594 73.0426 26.2935C73.7344 24.6277 74.7579 23.3359 76.1132 22.4183C77.4685 21.5006 79.1697 21.0489 81.2167 21.063C83.2637 21.0912 84.9649 21.5642 86.3202 22.4818C87.6896 23.3994 88.7131 24.6841 89.3908 26.3359C90.0825 27.9735 90.4284 29.9076 90.4284 32.1382C90.4284 34.3688 90.0825 36.317 89.3908 37.9829C88.7131 39.6487 87.6896 40.9405 86.3202 41.8581Z" fill="black"/>
<path d="M98.3493 46.3137C98.3493 46.9055 98.829 47.3852 99.4208 47.3852H102.403C102.994 47.3852 103.474 46.9055 103.474 46.3137V35.7594C103.474 34.8841 103.58 34.0723 103.792 33.3241C104.003 32.5617 104.328 31.8841 104.766 31.2911C105.218 30.6982 105.796 30.2112 106.502 29.83C107.208 29.4065 107.999 29.1594 108.874 29.0888C109.202 29.0627 109.516 29.055 109.816 29.0655C110.53 29.0905 111.225 28.5651 111.225 27.8508V25.4224C111.225 24.8986 110.846 24.4443 110.323 24.4151C109.931 24.3933 109.533 24.3983 109.128 24.43C108.408 24.4724 107.702 24.6065 107.01 24.8324C106.333 25.0441 105.712 25.3406 105.147 25.7218C104.483 26.1312 103.912 26.6535 103.432 27.2888C103.223 27.5676 103.032 27.8605 102.86 28.1677V25.5861C102.86 24.9944 102.38 24.5147 101.788 24.5147H99.4208C98.829 24.5147 98.3493 24.9944 98.3493 25.5861V46.3137Z" fill="black"/>
<path fill-rule="evenodd" clip-rule="evenodd" d="M124.562 48.0205C122.331 48.0205 120.461 47.491 118.95 46.4322C118.63 46.2077 118.326 45.966 118.04 45.7072V46.3137C118.04 46.9055 117.56 47.3852 116.968 47.3852H114.601C114.009 47.3852 113.529 46.9055 113.529 46.3137V17.9627C113.529 17.3709 114.009 16.8912 114.601 16.8912H117.604C118.195 16.8912 118.675 17.3709 118.675 17.9627V25.6229C118.745 25.5702 118.815 25.5185 118.887 25.4677C120.369 24.4088 122.197 23.8794 124.371 23.8794C126.531 23.8794 128.402 24.4088 129.983 25.4677C131.578 26.5124 132.814 27.9453 133.689 29.7665C134.564 31.5735 135.002 33.6347 135.002 35.9499C135.002 38.237 134.571 40.2911 133.71 42.1123C132.849 43.9334 131.635 45.3734 130.068 46.4322C128.501 47.491 126.666 48.0205 124.562 48.0205ZM118.611 32.0323C118.23 33.1476 118.04 34.4535 118.04 35.9499C118.04 37.4323 118.23 38.7382 118.611 39.8676C119.007 40.997 119.621 41.8793 120.454 42.5146C121.301 43.1358 122.409 43.4464 123.778 43.4464C125.106 43.4464 126.2 43.1146 127.061 42.4511C127.922 41.7876 128.557 40.8911 128.967 39.7617C129.39 38.6182 129.602 37.3476 129.602 35.9499C129.602 34.5664 129.39 33.31 128.967 32.1806C128.543 31.037 127.887 30.1335 126.997 29.47C126.108 28.7923 124.978 28.4535 123.609 28.4535C122.31 28.4535 121.251 28.7712 120.433 29.4065C119.614 30.0276 119.007 30.9029 118.611 32.0323Z" fill="black"/>
<path d="M138.399 46.3137C138.399 46.9055 138.879 47.3852 139.471 47.3852H142.431C143.023 47.3852 143.503 46.9055 143.503 46.3137V25.5861C143.503 24.9944 143.023 24.5147 142.431 24.5147H139.471C138.879 24.5147 138.399 24.9944 138.399 25.5861V46.3137Z" fill="black"/>
<path d="M161.556 46.4954C161.556 47.0113 161.189 47.4568 160.679 47.5314C159.471 47.708 158.281 47.7793 157.109 47.7452C155.669 47.7169 154.378 47.4558 153.234 46.9616C152.091 46.4534 151.222 45.6558 150.629 44.5687C150.107 43.5805 149.832 42.5711 149.804 41.5405C149.775 40.5099 149.761 39.3452 149.761 38.0464V28.517H146.682C146.09 28.517 145.611 28.0374 145.611 27.4456V25.5861C145.611 24.9944 146.09 24.5147 146.682 24.5147H149.761V19.2332C149.761 18.6415 150.241 18.1618 150.833 18.1618H153.772C154.364 18.1618 154.844 18.6415 154.844 19.2332V24.5147H160.485C161.077 24.5147 161.556 24.9944 161.556 25.5861V27.4456C161.556 28.0374 161.077 28.517 160.485 28.517H154.844V37.7499C154.844 38.6676 154.851 39.4723 154.865 40.164C154.893 40.8558 155.041 41.4205 155.309 41.8581C155.818 42.7052 156.629 43.1781 157.745 43.277C158.528 43.3463 159.387 43.3392 160.323 43.2555C160.975 43.1972 161.556 43.6954 161.556 44.3498V46.4954Z" fill="black"/>
<path d="M167.519 46.4534C169.184 47.4981 171.196 48.0205 173.554 48.0205C176.109 48.0205 178.269 47.3993 180.034 46.1569C181.513 45.1037 182.62 43.6734 183.356 41.8662C183.59 41.2891 183.221 40.6623 182.613 40.5263L179.471 39.8238C178.936 39.7042 178.407 40.0133 178.165 40.5052C177.799 41.2507 177.328 41.85 176.751 42.3028C175.975 42.924 174.909 43.2346 173.554 43.2346C171.634 43.2346 170.187 42.564 169.213 41.2229C168.239 39.8817 167.751 38.124 167.751 35.9499C167.751 34.5523 167.956 33.3029 168.366 32.2017C168.775 31.1006 169.41 30.2394 170.271 29.6182C171.133 28.9829 172.227 28.6653 173.554 28.6653C174.726 28.6653 175.77 29.0112 176.688 29.7029C177.354 30.1951 177.883 30.8324 178.274 31.615C178.53 32.1268 179.092 32.4441 179.644 32.2945L182.731 31.4583C183.292 31.3064 183.636 30.7322 183.443 30.1839C182.814 28.3943 181.734 26.9493 180.203 25.8488C178.41 24.5359 176.215 23.8794 173.617 23.8794C171.302 23.8794 169.304 24.4018 167.624 25.4465C165.944 26.4771 164.646 27.9029 163.728 29.7241C162.824 31.5311 162.366 33.6064 162.352 35.9499C162.366 38.2511 162.81 40.3123 163.686 42.1334C164.575 43.9546 165.853 45.3946 167.519 46.4534Z" fill="black"/>
<path d="M138.277 18.3521L139.715 16.9147C140.342 16.2871 141.36 16.2871 141.987 16.9147L143.425 18.3521C144.052 18.9797 144.052 19.9973 143.425 20.6249L141.987 22.0623C141.36 22.6899 140.342 22.6899 139.715 22.0623L138.277 20.6249C137.65 19.9973 137.65 18.9797 138.277 18.3521Z" fill="black"/>
</g>
</g>
<defs>
<linearGradient id="paint0_linear_0_9" x1="27.7135" y1="0" x2="27.7135" y2="62.3439" gradientUnits="userSpaceOnUse">
<stop offset="0.012324" stop-color="#203734"/>
<stop offset="1" stop-color="#5B9D94"/>
</linearGradient>
<linearGradient id="paint1_linear_0_9" x1="27.7135" y1="0" x2="27.7135" y2="62.3439" gradientUnits="userSpaceOnUse">
<stop offset="0.012324" stop-color="#203734"/>
<stop offset="1" stop-color="#5B9D94"/>
</linearGradient>
<linearGradient id="paint2_linear_0_9" x1="27.7135" y1="0" x2="27.7135" y2="62.3439" gradientUnits="userSpaceOnUse">
<stop offset="0.012324" stop-color="#203734"/>
<stop offset="1" stop-color="#5B9D94"/>
</linearGradient>
<linearGradient id="paint3_linear_0_9" x1="27.7135" y1="0" x2="27.7135" y2="62.3439" gradientUnits="userSpaceOnUse">
<stop offset="0.012324" stop-color="#203734"/>
<stop offset="1" stop-color="#5B9D94"/>
</linearGradient>
</defs>
</svg>
